<?xml version="1.0" encoding="UTF-8" standalone="no"?>
<svg xmlns="http://www.w3.org/2000/svg" xml:space="preserve" width="545.3078" height="574.91187" viewBox="-.531 -.531 545.3078 574.91187">
  <path fill="#fff" stroke="#000" stroke-linecap="round" stroke-linejoin="round" stroke-width=".97386825" d="M38.837336 573.89393H505.40942c10.31122 0 20.20133-4.318 27.49278-12.007 7.29145-7.688 11.38767-18.115 11.38767-28.988V40.951934c0-10.873-4.09622-21.3-11.38767-28.988-7.29239-7.6889999-17.18251-12.00799987-27.49373-12.00799987H38.837336c-10.312164 0-20.201333 4.31899997-27.492782 12.00699987-7.2923964 7.688-11.38861987 18.116-11.38861987 28.989V532.89893c0 10.873 4.09622347 21.3 11.38767187 28.988 7.291448 7.688 17.181566 12.007 27.49373 12.007z"/>
  <path fill="#173283" stroke="#183182" stroke-linecap="square" stroke-width="14.0456562" d="M84.566326 44.014153H465.5435c21.46905 0 38.75279 17.283745 38.75279 38.752792V492.37717c0 21.46905-17.28374 38.7528-38.75279 38.7528H84.566326c-21.469047 0-38.752792-17.28375-38.752792-38.7528V82.766945c0-21.469047 17.283745-38.752792 38.752792-38.752792z"/>
  <path fill="#fff" d="M125.73665 92.095291h69.47169V244.72249h161.048V92.095291h83.15551V494.189h-83.15551V323.66759h-161.048V494.189h-83.15551V92.095291z" font-family="Transport Heavy" font-size="538.93188477" font-weight="400" style="text-align:start;line-height:100%;-inkscape-font-specification:'Transport Heavy,'" transform="scale(1.00627 .99377)"/>
</svg>